# xmcd
#
# Track frame offsets: 
#        182
#        17417
#        35092
#        47155
#        61735
#        78342
#        92445
#        108505
#        125300
#        141792
#        154815
#        169285
#
# Disc length: 2419 seconds
#
# Revision: 0
# Processed by: cddbd v1.5.2PL0 Copyright (c) Steve Scherf et al.
# Submitted via: ExactAudioCopy v0.99pb3
#
DISCID=9309710c
DTITLE=Gian and Giovani - Vol. 2
DYEAR=1992
DGENRE=Country
TTITLE0=Sua Vez
TTITLE1=Nem Dormindo Consigo Te Esquecer
TTITLE2=Estou de Olho em Você
TTITLE3=Nos Braços da Desilusão
TTITLE4=Sonhos de Brinquedo
TTITLE5=Contra-senso
TTITLE6=O Amor Vai Cuidar de Nós
TTITLE7=Caçador de Corações
TTITLE8=Roupa de Lua-de-Mel
TTITLE9=Sonho de Nós Dois
TTITLE10=As Mesmas Coisas
TTITLE11=Saideira
EXTD=
EXTT0=
EXTT1=
EXTT2=
EXTT3=
EXTT4=
EXTT5=
EXTT6=
EXTT7=
EXTT8=
EXTT9=
EXTT10=
EXTT11=
PLAYORDER=
